<svg width="15" viewBox="0 0 58 75" fill="none" xmlns="http://www.w3.org/2000/svg">
<path d="M50.8 22H37.8V25H50.8C52.7 25 54.3 26.6 54.3 28.5V67.7C54.3 69.6 52.7 71.2 50.8 71.2H7.20001C5.30001 71.2 3.70001 69.6 3.70001 67.7V28.5C3.70001 26.6 5.30001 25 7.20001 25H19.2V22H7.20001C3.60001 22 0.700012 24.9 0.700012 28.5V67.7C0.700012 71.3 3.60001 74.2 7.20001 74.2H50.9C54.5 74.2 57.4 71.3 57.4 67.7V28.5C57.3 24.9 54.4 22 50.8 22ZM27.5 5.7V48.1H30.5V5.7L37.1 12.3L39.2 10.2L29 0L18.7 10.2L20.8 12.3L27.5 5.7Z" fill="black"/>
</svg>
