<svg height="12" viewBox="0 0 5 20" fill="none" xmlns="http://www.w3.org/2000/svg">
<path fill-rule="evenodd" clip-rule="evenodd" d="M2.23238 0C1.08405 0 0.150024 0.934011 0.150024 2.08235C0.150024 3.23068 1.08405 4.16471 2.23238 4.16471C3.38071 4.16471 4.31473 3.23068 4.31473 2.08235C4.31473 0.934011 3.38071 0 2.23238 0Z" fill="black"/>
<path fill-rule="evenodd" clip-rule="evenodd" d="M2.23238 7.92004C1.08421 7.92004 0.150024 8.85171 0.150024 10.0001C0.150024 11.1484 1.08405 12.0824 2.23238 12.0824C3.38071 12.0824 4.31473 11.1484 4.31473 10.0001C4.31473 8.85171 3.38054 7.92004 2.23238 7.92004Z" fill="black"/>
<path fill-rule="evenodd" clip-rule="evenodd" d="M2.23238 15.8376C1.08421 15.8376 0.150024 16.7694 0.150024 17.92C0.150024 19.0683 1.08421 20 2.23238 20C3.38054 20 4.31473 19.0683 4.31473 17.92C4.31473 16.7694 3.38054 15.8376 2.23238 15.8376Z" fill="black"/>
</svg>
