<svg width="75" height="50" viewBox="0 0 75 50" fill="none" xmlns="http://www.w3.org/2000/svg">
<path fill-rule="evenodd" clip-rule="evenodd" d="M38.4667 13.2653H38.5341C39.0458 13.2653 39.4619 13.6882 39.4619 14.2082V17.4172H43.7435C46.0941 17.4172 48 19.355 48 21.7452V32.4067C48 34.7968 46.0941 36.7346 43.7435 36.7346H33.2569C30.9063 36.7346 29 34.7968 29 32.4067V21.7452C29 19.355 30.9063 17.4172 33.2569 17.4172H37.5393V14.2082C37.5393 13.6882 37.9555 13.2653 38.4667 13.2653ZM37.5952 17.4198V17.42H37.5391V29.1145L35.0262 26.7819C34.6552 26.4363 34.068 26.4538 33.7192 26.8219C33.5496 27.0005 33.4609 27.2338 33.4677 27.479C33.4754 27.7248 33.579 27.9526 33.7604 28.121L37.8508 31.9189C38.016 32.0726 38.2345 32.1595 38.4747 32.1646L38.5018 32.166L38.5344 32.1641C38.766 32.1595 38.9845 32.0726 39.1501 31.9189L43.2405 28.121C43.4215 27.9526 43.5255 27.7248 43.5327 27.479C43.54 27.2338 43.4513 27.0005 43.2817 26.8219C42.9329 26.4538 42.3452 26.4358 41.9743 26.7819L39.4618 29.1145V17.42H39.4048V17.4198H37.5952Z" fill="#007AFF"/>
</svg>
