<svg width="75" height="50" viewBox="0 0 75 50" fill="none" xmlns="http://www.w3.org/2000/svg">
<path fill-rule="evenodd" clip-rule="evenodd" d="M39.0722 21.6222C38.8555 23.081 40.0572 24.3196 41.4729 24.0962C42.3552 23.9569 43.0756 23.2138 43.2108 22.3049C43.4275 20.8457 42.2258 19.6071 40.8106 19.8305C39.9283 19.9698 39.2074 20.7129 39.0722 21.6222ZM47.663 14.0409C47.7648 14.039 47.8496 14.1105 47.8671 14.2136C48.0537 15.2846 48.7611 21.1959 43.2604 28.0787C42.685 28.7986 42.0452 29.4172 41.381 29.9509C41.3211 29.9987 41.2931 30.0735 41.308 30.1501C41.504 31.1593 41.7455 33.1879 40.8435 34.356C38.9817 36.7664 36.2692 37.3715 35.4027 37.5076C35.2612 37.5299 35.1396 37.4068 35.1544 37.2601C35.1544 37.2601 35.5243 33.5683 35.6 32.7769C35.6073 32.7017 35.5451 32.639 35.4721 32.6497C35.0463 32.7096 34.3974 32.7895 34.2177 32.7463C33.9446 32.6803 31.9075 30.9368 31.7998 30.6693C31.7282 30.4924 31.7079 29.832 31.7025 29.4056C31.7016 29.3369 31.6381 29.2876 31.5736 29.3053L27.2386 30.4836C27.1187 30.5161 27.0016 30.426 27.0002 30.2982C26.993 29.4423 27.1314 26.534 29.1878 24.2337C30.1958 23.1065 32.2549 23.0689 33.2241 23.12C33.2998 23.1242 33.3674 23.0843 33.4048 23.016C33.8604 22.1823 34.424 21.3649 35.1211 20.6218C40.8935 14.4705 46.6145 14.0627 47.663 14.0409ZM33.1946 33.6033C33.3556 33.4226 33.4531 33.3132 33.7171 33.3767C34.0496 33.457 33.9113 34.424 33.2877 35.1587C32.9137 35.5999 32.3694 35.9487 31.7837 36.1033C30.4833 36.4461 29.2816 36.2408 29.2816 36.2408C29.2816 36.2408 28.9017 35.0421 29.0311 33.6651C29.0892 33.0451 29.3397 32.4367 29.7047 31.988C30.3134 31.2398 31.2195 30.9505 31.3475 31.2765C31.4483 31.5338 31.3568 31.6467 31.2064 31.8322C31.0429 32.0338 30.8098 32.3213 30.6784 32.9731C30.5073 33.8205 30.7324 34.2618 30.7876 34.3699C30.7955 34.3854 30.7999 34.3941 30.7991 34.3961C30.8005 34.3954 30.8074 34.398 30.8198 34.4027C30.9199 34.4405 31.3775 34.6135 32.177 34.3041C32.777 34.0717 33.0222 33.7967 33.1946 33.6033Z" fill="#A1A1A1"/>
</svg>
