<svg width="75" height="50" viewBox="0 0 75 50" fill="none" xmlns="http://www.w3.org/2000/svg">
<path fill-rule="evenodd" clip-rule="evenodd" d="M45.6154 34.2639V16.7564C45.6154 16.1676 45.1428 15.6887 44.5622 15.6887H31.4383C30.8572 15.6887 30.3846 16.1676 30.3846 16.7564V34.2639C30.3846 34.8528 30.8572 35.3317 31.4383 35.3317H44.5622C45.1428 35.3317 45.6154 34.8528 45.6154 34.2639ZM44.5622 14.2857C45.9062 14.2857 47 15.3941 47 16.7564V34.2639C47 35.6263 45.9062 36.7347 44.5622 36.7347H31.4383C30.0938 36.7347 29 35.6263 29 34.2639V16.7564C29 15.3941 30.0938 14.2857 31.4383 14.2857H44.5622ZM31.7692 33.7236H44.2307V21.0963H31.7692V33.7236ZM32.4615 18.7297H38C38.3826 18.7297 38.6923 18.4159 38.6923 18.0282C38.6923 17.6404 38.3826 17.3266 38 17.3266H32.4615C32.0789 17.3266 31.7692 17.6404 31.7692 18.0282C31.7692 18.4159 32.0789 18.7297 32.4615 18.7297Z" fill="#007AFF"/>
</svg>